<?xml version="1.0" encoding="UTF-8"?>
<svg id="_레이어_1" data-name="레이어_1" xmlns="http://www.w3.org/2000/svg" version="1.1" viewBox="0 0 156 26.54">
  <!-- Generator: Adobe Illustrator 30.6.0, SVG Export Plug-In . SVG Version: 2.1.4 Build 109)  -->
  <defs>
    <style>
      .st0 {
        fill: #262828;
      }
    </style>
  </defs>
  <g>
    <path class="st0" d="M7.95.7c.13.09.23.16.29.21.07.05.13.08.2.08s.13-.05.19-.15.13-.22.2-.38c.05-.12.12-.22.19-.29.07-.07.16-.11.27-.11.26,0,.4.17.43.51l.23,2.9c.02.22,0,.4-.05.53-.05.14-.16.22-.31.24-.14.02-.26-.02-.36-.11s-.2-.27-.31-.51c-.13-.31-.28-.61-.46-.93-.17-.31-.39-.6-.66-.85-.26-.26-.58-.47-.97-.63s-.85-.25-1.39-.25c-.5,0-.98.11-1.42.32-.44.21-.83.52-1.15.93-.33.41-.59.91-.78,1.52-.19.6-.29,1.29-.29,2.08,0,.55.08,1.09.25,1.64s.4,1.04.71,1.47c.31.44.69.79,1.15,1.07.45.27.96.41,1.53.41.43,0,.86-.06,1.31-.17.45-.11.87-.31,1.26-.6v-1.97c0-.26-.01-.49-.03-.67-.02-.19-.06-.34-.11-.48-.14-.31-.33-.46-.57-.46h-.39c-.26,0-.39-.09-.39-.28,0-.17.14-.26.43-.26h3.9c.28,0,.43.09.43.26,0,.19-.13.28-.39.28h-.39c-.24,0-.43.15-.57.46-.05.13-.09.29-.11.48-.02.19-.03.41-.03.67v2.57c-.59.31-1.24.57-1.95.8-.71.23-1.5.34-2.36.34s-1.62-.14-2.29-.43c-.68-.29-1.25-.69-1.71-1.2-.46-.51-.82-1.1-1.06-1.77-.25-.67-.37-1.39-.37-2.17,0-.85.14-1.64.43-2.35.28-.72.67-1.33,1.16-1.84s1.07-.91,1.73-1.2c.66-.29,1.37-.43,2.12-.43.68,0,1.21.08,1.6.25s.69.32.91.46Z"/>
    <path class="st0" d="M19.73,6.13v3.36c0,.26.05.44.14.52s.24.13.45.13h1.85c.23,0,.44-.01.62-.03.19-.02.34-.06.48-.11.5-.23.98-.71,1.43-1.44.22-.37.46-.52.74-.44.28.09.35.33.21.74l-.75,2.23h-7.96c-.28,0-.43-.09-.43-.26,0-.19.13-.28.39-.28h.39c.24,0,.43-.15.57-.46.05-.13.09-.29.11-.48.02-.19.03-.41.03-.67V2.47c0-.26-.01-.49-.03-.67-.02-.19-.06-.34-.11-.48-.14-.31-.33-.46-.57-.46h-.39c-.26,0-.39-.09-.39-.28,0-.17.14-.26.43-.26h7.91l.1,1.95c.02.46-.09.71-.33.75-.15.02-.28-.01-.38-.11-.1-.09-.21-.26-.34-.5-.12-.22-.25-.41-.39-.57-.14-.16-.29-.28-.46-.37-.14-.08-.31-.13-.5-.17-.19-.04-.39-.06-.6-.06h-2.21v3.95h1.93c.31,0,.56-.07.76-.22.2-.15.36-.4.47-.75.04-.13.1-.25.16-.35s.17-.16.31-.16c.31,0,.46.2.46.61v2.65c0,.4-.15.61-.46.61-.14,0-.25-.05-.31-.16s-.12-.22-.16-.35c-.11-.35-.26-.6-.47-.75-.2-.15-.46-.22-.76-.22h-1.93Z"/>
    <path class="st0" d="M31.44,5.7c0-.86.12-1.65.37-2.35.25-.7.6-1.31,1.05-1.8.45-.5,1-.88,1.63-1.15.63-.27,1.34-.4,2.13-.4s1.48.13,2.11.4c.63.27,1.18.65,1.63,1.15.45.5.8,1.1,1.05,1.8.25.7.37,1.49.37,2.35s-.12,1.66-.37,2.36c-.25.7-.6,1.3-1.05,1.79-.45.5-1,.88-1.63,1.15s-1.34.4-2.11.4-1.5-.13-2.13-.4c-.63-.27-1.18-.65-1.63-1.15-.45-.5-.8-1.1-1.05-1.79-.25-.7-.37-1.49-.37-2.36ZM39.96,5.7c0-.69-.08-1.32-.23-1.88-.15-.57-.37-1.06-.66-1.47-.28-.42-.63-.74-1.05-.97-.42-.23-.88-.34-1.41-.34s-1,.11-1.42.34c-.42.23-.77.55-1.06.97s-.5.91-.66,1.47c-.15.57-.23,1.2-.23,1.88s.08,1.32.23,1.88c.15.57.37,1.06.66,1.47s.64.74,1.06.97c.42.23.89.34,1.42.34s.99-.11,1.41-.34c.42-.23.76-.55,1.05-.97.28-.42.5-.91.66-1.47.15-.57.23-1.2.23-1.88Z"/>
    <path class="st0" d="M57.1,11.26l-6.77-7.83v5.51c0,.26,0,.49.02.69s.05.35.11.46c.16.26.35.39.57.39h.36c.1,0,.19.02.27.06s.12.12.12.24-.04.2-.12.25-.18.07-.3.07h-3.42c-.12,0-.22-.02-.31-.07-.09-.04-.13-.13-.13-.25s.04-.2.13-.24c.09-.04.18-.06.28-.06h.34c.22,0,.41-.13.57-.39.07-.11.11-.26.12-.46s.02-.43.02-.69V2.47c0-.26-.04-.49-.13-.69-.09-.2-.22-.37-.39-.52-.29-.26-.65-.39-1.06-.39h-.29c-.26,0-.39-.09-.39-.28,0-.17.14-.26.43-.26h2.92l6.57,7.52V2.31c0-.26,0-.49-.02-.69-.02-.2-.06-.35-.12-.46-.16-.26-.35-.39-.57-.39h-.34c-.1,0-.19-.02-.28-.06-.09-.04-.13-.12-.13-.24s.04-.2.13-.25c.09-.04.19-.07.31-.07h3.42c.12,0,.22.02.3.07.08.04.12.13.12.25s-.04.2-.12.24c-.08.04-.17.06-.27.06h-.36c-.22,0-.41.13-.57.39-.05.11-.09.26-.11.46-.02.2-.02.43-.02.69v8.95h-.87Z"/>
    <path class="st0" d="M72.94.7c.13.09.23.16.29.21.07.05.13.08.2.08s.13-.05.19-.15.13-.22.2-.38c.05-.12.12-.22.19-.29.07-.07.16-.11.27-.11.26,0,.4.17.43.51l.23,2.9c.02.22,0,.4-.05.53-.05.14-.16.22-.31.24-.14.02-.26-.02-.36-.11s-.2-.27-.31-.51c-.13-.31-.28-.61-.46-.93-.17-.31-.39-.6-.66-.85-.26-.26-.58-.47-.97-.63s-.85-.25-1.39-.25c-.5,0-.98.11-1.42.32-.44.21-.83.52-1.15.93-.33.41-.59.91-.78,1.52-.19.6-.29,1.29-.29,2.08,0,.55.08,1.09.25,1.64s.4,1.04.71,1.47c.31.44.69.79,1.15,1.07.45.27.96.41,1.53.41.43,0,.86-.06,1.31-.17.45-.11.87-.31,1.26-.6v-1.97c0-.26-.01-.49-.03-.67-.02-.19-.06-.34-.11-.48-.14-.31-.33-.46-.57-.46h-.39c-.26,0-.39-.09-.39-.28,0-.17.14-.26.43-.26h3.9c.28,0,.43.09.43.26,0,.19-.13.28-.39.28h-.39c-.24,0-.43.15-.57.46-.05.13-.09.29-.11.48-.02.19-.03.41-.03.67v2.57c-.59.31-1.24.57-1.95.8-.71.23-1.5.34-2.36.34s-1.62-.14-2.29-.43c-.68-.29-1.25-.69-1.71-1.2-.46-.51-.82-1.1-1.06-1.77-.25-.67-.37-1.39-.37-2.17,0-.85.14-1.64.43-2.35.28-.72.67-1.33,1.16-1.84s1.07-.91,1.73-1.2c.66-.29,1.37-.43,2.12-.43.68,0,1.21.08,1.6.25s.69.32.91.46Z"/>
    <path class="st0" d="M83.59,10.29c.04.16.17.25.39.25h.18c.31,0,.46.1.46.29,0,.16-.16.25-.48.25h-2.83c-.32,0-.48-.08-.48-.25,0-.2.15-.29.46-.29h.18c.1,0,.2-.04.31-.11.11-.08.21-.19.29-.33.09-.15.18-.34.29-.56.1-.22.21-.47.32-.75l3.49-8.78h.87l3.54,8.78c.12.28.23.54.32.75.09.22.18.4.27.56.09.14.19.25.3.33.11.08.22.11.32.11h.18c.31,0,.46.1.46.29,0,.16-.16.25-.48.25h-3.49c-.32,0-.48-.08-.48-.25,0-.2.15-.29.46-.29h.28c.23,0,.34-.08.34-.25,0-.12-.02-.25-.06-.38-.04-.13-.08-.27-.14-.41l-.67-1.82h-3.74l-.72,1.82c-.05.14-.1.29-.14.43-.04.15-.05.27-.02.35ZM86.41,2.82l-1.61,4.01h3.08l-1.47-4.01Z"/>
    <path class="st0" d="M107.11,11.26l-6.77-7.83v5.51c0,.26,0,.49.02.69s.05.35.11.46c.16.26.35.39.57.39h.36c.1,0,.19.02.27.06s.12.12.12.24-.04.2-.12.25-.18.07-.3.07h-3.42c-.12,0-.22-.02-.31-.07-.09-.04-.13-.13-.13-.25s.04-.2.13-.24c.09-.04.18-.06.28-.06h.34c.22,0,.41-.13.57-.39.07-.11.11-.26.12-.46s.02-.43.02-.69V2.47c0-.26-.04-.49-.13-.69-.09-.2-.22-.37-.39-.52-.29-.26-.65-.39-1.06-.39h-.29c-.26,0-.39-.09-.39-.28,0-.17.14-.26.43-.26h2.92l6.57,7.52V2.31c0-.26,0-.49-.02-.69-.02-.2-.06-.35-.12-.46-.16-.26-.35-.39-.57-.39h-.34c-.1,0-.19-.02-.28-.06-.09-.04-.13-.12-.13-.24s.04-.2.13-.25c.09-.04.19-.07.31-.07h3.42c.12,0,.22.02.3.07.08.04.12.13.12.25s-.04.2-.12.24c-.08.04-.17.06-.27.06h-.36c-.22,0-.41.13-.57.39-.05.11-.09.26-.11.46-.02.2-.02.43-.02.69v8.95h-.87Z"/>
    <path class="st0" d="M122.95.7c.13.09.23.16.29.21.07.05.13.08.2.08s.13-.05.19-.15.13-.22.2-.38c.05-.12.12-.22.19-.29.07-.07.16-.11.27-.11.26,0,.4.17.43.51l.23,2.9c.02.22,0,.4-.05.53-.05.14-.16.22-.31.24-.14.02-.26-.02-.36-.11s-.2-.27-.31-.51c-.13-.31-.28-.61-.46-.93-.17-.31-.39-.6-.66-.85-.26-.26-.58-.47-.97-.63s-.85-.25-1.39-.25c-.5,0-.98.11-1.42.32-.44.21-.83.52-1.15.93-.33.41-.59.91-.78,1.52-.19.6-.29,1.29-.29,2.08,0,.55.08,1.09.25,1.64s.4,1.04.71,1.47c.31.44.69.79,1.15,1.07.45.27.96.41,1.53.41.43,0,.86-.06,1.31-.17.45-.11.87-.31,1.26-.6v-1.97c0-.26-.01-.49-.03-.67-.02-.19-.06-.34-.11-.48-.14-.31-.33-.46-.57-.46h-.39c-.26,0-.39-.09-.39-.28,0-.17.14-.26.43-.26h3.9c.28,0,.43.09.43.26,0,.19-.13.28-.39.28h-.39c-.24,0-.43.15-.57.46-.05.13-.09.29-.11.48-.02.19-.03.41-.03.67v2.57c-.59.31-1.24.57-1.95.8-.71.23-1.5.34-2.36.34s-1.62-.14-2.29-.43c-.68-.29-1.25-.69-1.71-1.2-.46-.51-.82-1.1-1.06-1.77-.25-.67-.37-1.39-.37-2.17,0-.85.14-1.64.43-2.35.28-.72.67-1.33,1.16-1.84s1.07-.91,1.73-1.2c.66-.29,1.37-.43,2.12-.43.68,0,1.21.08,1.6.25s.69.32.91.46Z"/>
    <path class="st0" d="M142.35,2.77c-.08.37-.17.71-.27,1.01-.1.3-.22.59-.34.88l-2.75,6.42h-.93l-3.18-6.42c-.15-.31-.27-.6-.36-.89-.09-.29-.17-.62-.25-.99v6.16c0,.26.01.49.03.67.02.19.06.34.11.48.14.31.33.46.57.46h.39c.26,0,.39.09.39.28,0,.17-.14.26-.43.26h-3.42c-.28,0-.43-.09-.43-.26,0-.19.13-.28.39-.28h.39c.24,0,.43-.15.57-.46.05-.13.09-.29.11-.48.02-.19.03-.41.03-.67V2.47c0-.26-.01-.49-.03-.67-.02-.19-.06-.34-.11-.48-.14-.31-.33-.46-.57-.46h-.39c-.26,0-.39-.09-.39-.28,0-.17.14-.26.43-.26h2.82l4,8.4,3.46-8.4h3.03c.28,0,.43.09.43.26,0,.19-.13.28-.39.28h-.39c-.24,0-.43.15-.57.46-.05.13-.09.29-.11.48-.02.19-.03.41-.03.67v6.46c0,.26.01.49.03.67.02.19.06.34.11.48.14.31.33.46.57.46h.39c.26,0,.39.09.39.28,0,.17-.14.26-.43.26h-3.96c-.28,0-.43-.09-.43-.26,0-.19.13-.28.39-.28h.39c.24,0,.43-.15.57-.46.05-.13.09-.29.11-.48.02-.19.03-.41.03-.67V2.77Z"/>
    <path class="st0" d="M152.74,2.47c0-.26-.01-.49-.03-.67-.02-.19-.06-.34-.11-.48-.14-.31-.33-.46-.57-.46h-.39c-.26,0-.39-.09-.39-.28,0-.17.14-.26.43-.26h3.92c.28,0,.43.09.43.26,0,.19-.13.28-.39.28h-.39c-.24,0-.43.15-.57.46-.05.13-.09.29-.11.48-.02.19-.03.41-.03.67v6.46c0,.26.01.49.03.67.02.19.06.34.11.48.14.31.33.46.57.46h.39c.26,0,.39.09.39.28,0,.17-.14.26-.43.26h-3.92c-.28,0-.43-.09-.43-.26,0-.19.13-.28.39-.28h.39c.24,0,.43-.15.57-.46.05-.13.09-.29.11-.48.02-.19.03-.41.03-.67V2.47Z"/>
  </g>
  <g>
    <path class="st0" d="M38.45,25.73l.28-.31c.4.45.96.73,1.58.73.81,0,1.31-.43,1.31-1.05,0-.66-.43-.87-.96-1.11l-.81-.36c-.49-.22-1.11-.56-1.11-1.36s.69-1.37,1.61-1.37c.66,0,1.2.28,1.54.66l-.25.29c-.32-.33-.75-.55-1.29-.55-.7,0-1.16.37-1.16.93,0,.62.53.85.93,1.02l.81.36c.62.28,1.14.62,1.14,1.45s-.7,1.48-1.76,1.48c-.79,0-1.42-.33-1.85-.81Z"/>
    <path class="st0" d="M44.68,20.99h1.41c1.23,0,1.99.4,1.99,1.53s-.75,1.61-1.96,1.61h-.99v2.3h-.45v-5.45ZM46.04,23.77c1.08,0,1.59-.37,1.59-1.24s-.54-1.16-1.62-1.16h-.87v2.4h.9Z"/>
    <path class="st0" d="M51.51,20.99h.46l1.91,5.45h-.48l-.61-1.83h-2.12l-.62,1.83h-.45l1.91-5.45ZM50.79,24.25h1.88l-.33-.99c-.22-.64-.4-1.21-.6-1.87h-.03c-.19.66-.37,1.23-.59,1.87l-.34.99Z"/>
    <path class="st0" d="M58.87,25.05c0-.72.54-1.18,1.11-1.59-.22-.46-.37-.92-.37-1.34,0-.7.47-1.23,1.16-1.23.61,0,.94.43.94,1,0,.71-.64,1.17-1.25,1.64.37.66.93,1.31,1.49,1.79.37-.48.65-1.08.84-1.75h.41c-.22.74-.53,1.43-.96,2,.37.28.74.49,1.05.6l-.13.37c-.35-.11-.75-.33-1.18-.67-.4.4-.89.67-1.51.67-.9,0-1.59-.59-1.59-1.49ZM60.51,26.17c.43,0,.83-.22,1.17-.55-.58-.52-1.14-1.18-1.53-1.85-.46.36-.84.75-.84,1.26,0,.69.54,1.14,1.2,1.14ZM60.3,23.23c.55-.39,1.04-.76,1.04-1.31,0-.35-.16-.69-.58-.69-.47,0-.75.4-.75.88,0,.34.11.73.29,1.11Z"/>
    <path class="st0" d="M70.01,20.99h.46l1.91,5.45h-.48l-.61-1.83h-2.12l-.62,1.83h-.45l1.91-5.45ZM69.29,24.25h1.88l-.33-.99c-.22-.64-.4-1.21-.6-1.87h-.03c-.19.66-.37,1.23-.59,1.87l-.34.99Z"/>
    <path class="st0" d="M74.71,20.99h3.01v.38h-2.56v1.99h2.16v.38h-2.16v2.31h2.65v.39h-3.09v-5.45Z"/>
    <path class="st0" d="M80.08,25.73l.28-.31c.4.45.96.73,1.58.73.81,0,1.31-.43,1.31-1.05,0-.66-.43-.87-.96-1.11l-.81-.36c-.49-.22-1.11-.56-1.11-1.36s.69-1.37,1.61-1.37c.66,0,1.2.28,1.54.66l-.25.29c-.32-.33-.75-.55-1.29-.55-.7,0-1.16.37-1.16.93,0,.62.53.85.93,1.02l.81.36c.62.28,1.14.62,1.14,1.45s-.7,1.48-1.76,1.48c-.79,0-1.42-.33-1.85-.81Z"/>
    <path class="st0" d="M87.31,21.38h-1.71v-.38h3.89v.38h-1.72v5.07h-.46v-5.07Z"/>
    <path class="st0" d="M92.01,20.99h.45v2.36h2.83v-2.36h.45v5.45h-.45v-2.7h-2.83v2.7h-.45v-5.45Z"/>
    <path class="st0" d="M98.81,20.99h3.01v.38h-2.56v1.99h2.16v.38h-2.16v2.31h2.65v.39h-3.09v-5.45Z"/>
    <path class="st0" d="M105.74,21.38h-1.71v-.38h3.89v.38h-1.72v5.07h-.46v-5.07Z"/>
    <path class="st0" d="M110.44,20.99h.45v5.45h-.45v-5.45Z"/>
    <path class="st0" d="M113.62,23.71c0-1.74.96-2.82,2.35-2.82.64,0,1.14.31,1.43.66l-.25.29c-.29-.33-.68-.55-1.18-.55-1.15,0-1.88.93-1.88,2.4s.71,2.44,1.85,2.44c.55,0,.96-.23,1.35-.66l.25.28c-.42.49-.93.78-1.63.78-1.35,0-2.3-1.08-2.3-2.83Z"/>
  </g>
</svg>