<svg xmlns="http://www.w3.org/2000/svg" viewBox="0 0 471.21 803.14"><path fill="#262828" d="M403.24 402.15a235.6 235.6 0 1 0-335.26 0 235.6 235.6 0 1 0 335.26 0ZM235.61 24.23c116.55 0 211.37 95.02 211.37 212.26S352.16 448.76 235.61 448.76 24.23 353.74 24.23 236.49 119.06 24.23 235.61 24.23Zm0 400.03c-103.98 0-188.54-84.2-188.54-187.77S131.63 48.72 235.61 48.72s188.53 84.2 188.53 187.77-84.56 187.77-188.53 187.77Zm0 48.54c116.55 0 211.37 68.9 211.37 153.93s-94.82 153.93-211.37 153.93S24.23 711.76 24.23 626.73 119.06 472.8 235.61 472.8Z"/></svg>
